<?xml version="1.0" encoding="UTF-8"?>
<svg xmlns="http://www.w3.org/2000/svg" viewBox="0 0 725 513"><path d="M352 0h5c3.8 14.37 6.78 28.89 9.81 43.44l1.61 7.67 3.15 15.07 6.25 29.64q3 14.11 6.18 28.18c4.32-3.99 7.43-8.33 10.63-13.25l1.56-2.38q4.64-7.08 9.22-14.2L412 84l2.07-3.18 1.81-2.69 1.49-2.25A19 19 0 01424 71l2 1c-.73 14.57-1.62 29.13-2.56 43.69l-.42 6.53L422 138l4.75-2.79 2.68-1.57a61 61 0 008.46-6.74c2.37-2.13 4.82-4.14 7.3-6.15a542 542 0 0024.5-20.94 216 216 0 0112.57-10.61 573 573 0 0021.05-18.01C514.27 61.58 514.27 61.58 519 60c1.15 1.54 1.15 1.54 2 4a58 58 0 01-2.43 7.29l-.82 2.11q-1.3 3.34-2.62 6.66-1.32 3.34-2.61 6.68l-1.64 4.14c-1.13 2.87-1.88 5-1.88 8.12h-2l-.44 1.63c-2.38 8.31-5.51 16.32-8.62 24.37l-1.73 4.5-3.51 9.09-4.78 12.42L481 169l2.71-1.33c29.82-14.56 29.82-14.56 42.1-20.23l2.4-1.14c3.74-1.7 5.87-2.59 9.79-1.3a91 91 0 01-6.94 13.69l-1.15 1.89-5.48 8.98-4.93 8.07-1.6 2.58-1.49 2.45-1.34 2.17A23 23 0 00513 192h-3l-1 4 4.55-1.02 3.04-.68 6.88-1.54 17.38-3.89 10.03-2.25 2.04-.46q14.23-3.18 28.46-6.44l9.91-2.25 6.25-1.43c20.63-4.76 20.63-4.76 29.46-5.04l1 3-5 5-2.69 2.81C618 184 618 184 616 184v2a110 110 0 01-5 4.13c-4.31 3.44-8.24 7-12.09 10.94-8.35 8.41-8.35 8.41-12.91 9.93l-1 3a88 88 0 01-4.69 3.88c-4.63 3.69-9 7.55-13.31 11.62a207 207 0 01-13 11.38A66 66 0 00543 252c9.48.14 18.91-.12 28.38-.5 16.92-.65 16.92-.65 23.62-.75l3.94-.08c3.06.33 3.06.33 5 1.85L605 254a38 38 0 01-7.04 5.79l-2.47 1.64-2.68 1.76-5.67 3.76L581 271l-12.94 8.56-3.06 2.02c-8.96 5.68-8.96 5.68-16 13.42.19 2.76.19 2.76.88 5.69l.61 3.01.51 2.3 2.48-.07 3.27-.05 3.23-.08c3.07.2 4.52.47 7.02 2.2.59 2.09.59 2.09.72 4.72l.17 3.01.11 3.27.14 3.34a829 829 0 01.48 15.3l.32 10.91.56 19.37.06 2.11q.39 13.52.96 27.04l.11 2.73c.76 19.17.76 19.17 9.74 35.75 2.8 2.49 6.4 3.5 9.87 4.79l5.13 1.95 2.72 1.03c23.2 8.78 46.09 18.24 68.09 29.74q2.9 1.5 5.82 2.97c10.95 5.61 21.34 12.02 31.74 18.58q3.04 1.86 6.15 3.59a38 38 0 016.74 4.8c2.06 1.85 4.1 3.56 6.31 5.25L725 510v2c-6.91-1.19-13.46-3-20.12-5.2-3.02-.98-3.02-.98-6.88-.8v-2l-1.79-.35a768 768 0 01-13.66-2.83 412 412 0 00-42.97-7.12 271 271 0 00-29.71-1.87l-2.76-.04q-6.9-.1-13.8-.1c-10.81-.06-20.11-1.43-30.32-5q-2.9-1-5.84-1.94-3.83-1.23-7.64-2.49c-73.04-24.16-148.27-41.61-224.7-50.7l-2.12-.25c-7.27-.86-14.37-1.51-21.69-1.31v-2l-3.44.09c-7.52 0-15.01-.84-22.5-1.53-86.86-7.94-177.36-4.35-262.94 13.02-2.2.44-4.2.52-6.43.48L2 440c.07-2.23.07-2.23 1-5 2.3-1.71 4.36-3 6.87-4.31l2.18-1.17c20.01-10.54 41.91-18.18 63.96-23.03 12.7-2.83 21.87-6.35 31.84-14.71 3.28-2.72 6.69-5.26 10.09-7.82q4.06-3.08 8.1-6.19a449 449 0 0115.46-11.27l1.54-1.15c1.96-1.35 1.96-1.35 5.01-3.03 5.02-3.07 8.43-5.2 9.88-11.1.33-4.53.01-9.01-.31-13.53q-.14-3.65-.25-7.29-.08-2.4-.18-4.78c-.3-7.69.39-15.11 1.37-22.73.46-4.03.51-7.84.44-11.89l-2.94-1.62a132 132 0 01-8.37-5.25c-3.9-2.64-7.88-5.07-11.94-7.44-2.34-1.44-4.6-2.93-6.87-4.46a222 222 0 00-10.35-6.52l-2.79-1.66q-2.85-1.7-5.71-3.37l-2.75-1.66-2.5-1.47L103 256v-4c6.91-.88 13.52-1.04 20.47-.66l2.91.14 9.12.46 9.12.45 5.64.28q8.87.42 17.74.33c-6.06-5.67-12.09-11.19-18.72-16.19-3.72-2.95-7.17-6.19-10.66-9.4q-4.24-3.88-8.6-7.64a445 445 0 01-6.83-6.14 368 368 0 00-18.22-15.24A99 99 0 01101 195v-2l-1.68-.71c-2.88-1.6-5.03-3.61-7.45-5.85-3.19-3.08-3.19-3.08-6.87-5.44v-2l-1.88-.87C81 177 81 177 79 175v-4c10.79.4 21.2 3.07 31.69 5.44l5.57 1.23c13.66 3.04 13.66 3.04 19.12 4.46 3.54 1 3.54 1 6.93.87 2.69 0 2.69 0 5.69 2 2.06.68 2.06.68 4.36 1.21l2.66.64 2.87.68 2.96.72 9.4 2.25 9.35 2.25 5.82 1.4c4.9 1.17 9.75 2.42 14.58 3.85l-1.88-3.06a4460 4460 0 01-17.06-28.06l-1.93-3.2A197 197 0 01170 147l2-3c4.81 1.49 9.27 3.41 13.81 5.56l2.24 1.06a356 356 0 0115.7 8.01c11.62 7.09 11.62 7.09 24.25 10.37l-.73-1.8-3.27-8.07-1.16-2.84-1.09-2.72-1.02-2.51C220 149 220 149 220 147l-2-1c-.65-1.79-.65-1.79-1.27-4.19-1.93-6.82-4.68-13.27-7.42-19.81a1572 1572 0 01-4.35-10.45C204 109 204 109 204 107l-2-1c-.61-1.69-.61-1.69-1.19-4-1.38-4.91-3.2-9.5-5.19-14.19a271 271 0 01-7.87-20.83C187 64 187 64 188 61c4.87.43 7.62 2.85 11.12 6l3.47 3.02 1.74 1.53c2.4 2.09 4.88 4.08 7.36 6.08 4.39 3.57 8.6 7.31 12.78 11.12 2.6 2.31 5.26 4.51 7.97 6.69 3.82 3.09 7.5 6.29 11.12 9.62 4.19 3.86 8.51 7.43 12.98 10.95 2.55 2.06 4.97 4.22 7.4 6.43a429 429 0 0010.87 9.56l2.65 2.25c2.65 1.83 4.42 2.23 7.54 2.75.22-11.91-.46-23.58-1.5-35.44A1911 1911 0 01282 83l-.15-2.43-.08-2.42-.09-2.19c.41-2.5 1.41-3.37 3.32-4.96 4.87 3.68 7.89 7.39 11.06 12.56l2.87 4.55 1.51 2.41c2.7 4.29 5.48 8.54 8.25 12.79l1.66 2.55c6.2 10.59 6.2 10.59 13.65 20.14l5.48-25.56 2.54-11.86 2.45-11.46.94-4.37 1.3-6.12.76-3.52c.47-2.79.64-5.3.53-8.11h2l.38-3.88c.56-5.09 1.54-10.04 2.62-15.05l.58-2.75 1.23-5.72 1.86-8.76 1.2-5.58.56-2.63.53-2.46.46-2.16A30 30 0 01352 0" fill="#F9FAF6"/><path d="M465.93 177.66c14 11.95 26.8 25.04 37.07 40.34l1.33 1.99c15.95 23.98 33.67 57.6 33.67 87l-37-2c4.21-18.95 4.21-18.95 6.42-26.7.66-2.62.87-5.22 1.13-7.91.8-4.21 2.3-8.23 3.72-12.28 1.3-3.46 1.3-3.46 1.73-7.1a4728 4728 0 00-124.78 15.94 12407 12407 0 00-129.32 18.59l-3.3.5-2.86.43c-4.47.89-8.53 1.98-12.05 4.94l-1.74 1.43-1.83 1.55-3.99 3.27-2.06 1.69a318 318 0 01-10.14 7.72 650 650 0 00-15.12 11.57 1475 1475 0 01-28.44 21.93l-2.08 1.6-1.96 1.47-1.73 1.32C171 346 171 346 168 347c-.43-15.26.7-29.91 3-45l.34-2.31c1.7-11.28 4.92-21.93 8.66-32.7l1.26-3.65C188.4 244.3 198.41 225.97 211 210l1.41-1.8c30.91-38.6 74.41-65.02 123.91-70.7 46.32-4.53 93.8 10.6 129.61 40.16" fill="#FE9007"/><path d="m235.03 398.74 15.84-.01c25.11-.04 50.07.5 75.13 2.27l3.49.24q10.54.71 21.07 1.57l3.15.26c85.86 6.99 172.54 21 333.96 85.68l9.46 5.06 4.35 2.32A64 64 0 00712 501l2-1 2.12 2.19a72 72 0 006.19 5.5l2.69 2.3v2c-6.91-1.17-13.46-3-20.12-5.18-3.02-1-3.02-1-6.88-.81v-2l-1.79-.35q-6.85-1.35-13.66-2.83A412 412 0 00642 494l-2.42-.3a271 271 0 00-29.71-1.87l-2.76-.04q-6.9-.1-13.8-.1c-10.81-.06-20.11-1.43-30.32-5q-2.91-1-5.84-1.94-3.83-1.23-7.64-2.5c-73.04-24.15-148.27-41.6-224.7-50.7l-2.12-.24c-7.27-.86-14.37-1.51-21.69-1.31v-2l-3.44.09c-7.53 0-15.01-.84-22.5-1.53-86.86-7.94-177.36-4.35-262.94 13.03-2.2.43-4.2.5-6.43.47L2 440l1-5 2 1a128 128 0 006.19-2.81c39.36-18 83.74-24.84 126.37-29.94l2.5-.31c31.59-3.82 63.2-4.27 94.97-4.2" fill="#588C15"/><path d="m518 60 3 3-3.19 9.19-.95 2.75a426 426 0 01-7.01 18.63c-1.01 2.47-1.01 2.47-.85 5.43h-2l-.44 1.63c-2.38 8.31-5.51 16.32-8.62 24.37l-1.73 4.5-3.51 9.09-4.78 12.42L481 169l2.71-1.33c29.82-14.56 29.82-14.56 42.1-20.23l2.4-1.14c3.74-1.7 5.87-2.59 9.79-1.3a91 91 0 01-6.94 13.69l-1.15 1.89-5.48 8.98-4.93 8.07-1.6 2.58-1.49 2.45-1.34 2.17A23 23 0 00513 192h-3l-1 4 4.55-1.02 3.04-.68 6.88-1.54 17.38-3.89 10.03-2.25 2.04-.46q14.23-3.18 28.46-6.44l9.91-2.25 6.25-1.43c20.63-4.76 20.63-4.76 29.46-5.04l1 3-5 5-2.69 2.81C618 184 618 184 616 184v2a110 110 0 01-5 4.13c-4.31 3.44-8.24 7-12.09 10.94-8.35 8.41-8.35 8.41-12.91 9.93l-1 3a88 88 0 01-4.69 3.88c-4.63 3.69-9 7.55-13.31 11.62a207 207 0 01-13 11.38A66 66 0 00543 252c9.48.14 18.91-.12 28.38-.5 16.92-.65 16.92-.65 23.62-.75l3.94-.08c3.06.33 3.06.33 5 1.85L605 254a38 38 0 01-7.04 5.79l-2.47 1.64-2.68 1.76-5.67 3.76L581 271l-12.94 8.56-3.06 2.02c-9.89 6.32-9.89 6.32-17 15.42h-1l-.37-2.84C540.97 255.49 521.55 219.13 496 190l-1.61-1.85A147 147 0 00473 168l-2.98-2.42c-12.41-10.01-26.11-17.44-40.61-23.99C426 140 426 140 423 138l2.02-1.43c13.56-9.73 26.25-20.62 38.77-31.64q12-10.51 24.37-20.59A556 556 0 00498 76c16.62-14.31 16.62-14.31 20-16" fill="#FDCB10"/><path d="M202.27 414.47c3.2.62 5.89.4 9.15.08 7.35-.59 14.59-.6 21.96-.47l4.02.07 8.37.14 10.5.18c24.48.4 48.83 1.47 73.23 3.28l3.53.26c49.65 3.71 99.05 9.63 147.86 19.56l6.1 1.23c37.94 7.63 75.08 18.8 112 30.2l2.45.75a1835 1835 0 0159.62 19.47l2.15.75 2.15.74a2564 2564 0 0028.28 9.54c15.55 5.34 15.55 5.34 31.36 9.75v2a138 138 0 01-20.11-5.2c-3.03-.98-3.03-.98-6.9-.8v-2l-1.78-.35q-6.85-1.34-13.66-2.84a412 412 0 00-40.55-6.8c-1.2-.16-1.2-.16-2.42-.3a271 271 0 00-29.71-1.88l-2.76-.04q-6.9-.1-13.8-.1c-10.81-.07-20.11-1.43-30.32-5q-2.9-1-5.84-1.94-3.83-1.23-7.64-2.49c-73.04-24.17-148.27-41.6-224.7-50.7l-2.12-.26c-7.27-.86-14.37-1.5-21.7-1.3v-2l-3.43.1c-7.52 0-15.01-.85-22.5-1.54-64.94-5.94-130.22-3.8-195.06 2.44l2-1v-5l3.47.03 4.47.03 2.29.02q2.89 0 5.77-.08l1-1 7-1 2-1q2.96-.22 5.93-.28l3.6-.12 3.79-.1 7.36-.22 3.3-.09A57 57 0 00140 418q2.36-.2 4.73-.28l2.63-.12 5.43-.2 2.62-.12 2.38-.09c2.2-.13 2.2-.13 4.22-.72 2.26-.54 4.09-.48 6.4-.32l2.55.17 2.67.18c12 .75 12 .75 23.69-1.63 2.68-.87 2.68-.87 4.95-.4" fill="#174915"/><path d="M172 144c4.81 1.49 9.27 3.41 13.81 5.56l2.24 1.06a416 416 0 0117.83 9.15 240 240 0 0016.39 7.94A75 75 0 01230 172a463 463 0 01-7.73 7.62 179 179 0 00-18.91 21.57 429 429 0 01-4.14 5.4c-7.11 9.28-12.86 19.04-18.22 29.41l-1.18 2.25c-8.43 16.22-14.64 33.72-17.82 51.75-6.67 0-11.24-3.76-16.58-7.39-3.15-2.1-6.4-4.01-9.67-5.92-2.34-1.44-4.6-2.93-6.87-4.46a222 222 0 00-10.35-6.52l-2.79-1.66q-2.85-1.7-5.71-3.37l-2.75-1.66-2.5-1.47L103 256v-4c6.91-.88 13.52-1.04 20.47-.66l2.91.14 9.12.46 9.12.45 5.64.28q8.87.42 17.74.33c-6.06-5.67-12.09-11.19-18.72-16.19-3.72-2.95-7.17-6.19-10.66-9.4q-4.24-3.88-8.6-7.64-3.45-3.04-6.83-6.14a368 368 0 00-18.22-15.24A99 99 0 01101 195v-2l-1.68-.71c-2.88-1.6-5.03-3.61-7.45-5.85-3.19-3.08-3.19-3.08-6.87-5.44v-2l-1.88-.87C81 177 81 177 79 175v-4c10.79.4 21.2 3.07 31.69 5.44l5.57 1.23c13.66 3.04 13.66 3.04 19.12 4.46 3.54 1 3.54 1 6.93.87 2.69 0 2.69 0 5.69 2 2.06.68 2.06.68 4.36 1.21l2.66.64 2.87.68 2.96.72 9.4 2.25 9.35 2.25 5.82 1.4c4.9 1.17 9.75 2.42 14.58 3.85l-1.88-3.06a4460 4460 0 01-17.06-28.06l-1.93-3.2A197 197 0 01170 147z" fill="#FC5C01"/><path d="M352 0h5c3.8 14.37 6.78 28.89 9.81 43.44l1.61 7.67 3.15 15.07 6.25 29.64q3 14.11 6.18 28.18c4.32-3.99 7.43-8.33 10.63-13.25l1.56-2.38q4.64-7.08 9.22-14.2L412 84l2.07-3.18 1.81-2.69 1.49-2.25A19 19 0 01424 71l2 1c-.73 14.57-1.62 29.13-2.56 43.69l-.42 6.53L422 138l-1.63-.52-7.42-2.37-2.57-.82c-18.65-5.93-37.48-7.71-56.94-7.66h-2.5a183 183 0 00-58.92 9.77A67 67 0 01285 138l.05-3.03c.14-11.23-.56-22.29-1.55-33.47l-.64-7.51-.4-4.61A274 274 0 01282 83l-.15-2.43-.08-2.42-.09-2.19c.41-2.5 1.41-3.36 3.32-4.96 4.87 3.68 7.89 7.39 11.06 12.56l2.87 4.55 1.51 2.41c2.7 4.29 5.48 8.54 8.25 12.79l1.66 2.55c6.2 10.59 6.2 10.59 13.65 20.14l5.48-25.56 2.54-11.86 2.45-11.46.94-4.37 1.3-6.12.76-3.52c.47-2.79.64-5.3.53-8.11h2l.38-3.88c.56-5.09 1.54-10.04 2.62-15.05l.58-2.75 1.23-5.72 1.86-8.76 1.2-5.58.56-2.63.53-2.46.46-2.16A30 30 0 01352 0" fill="#FEC50B"/><path d="m518 60 3 3-3.19 9.19-.95 2.75a426 426 0 01-7.01 18.63c-1.01 2.47-1.01 2.47-.85 5.43h-2l-.44 1.63c-2.38 8.31-5.51 16.32-8.62 24.37l-1.73 4.5-3.51 9.09-4.78 12.42L481 169l2.71-1.33c29.82-14.56 29.82-14.56 42.1-20.23l2.4-1.14c3.74-1.7 5.87-2.59 9.79-1.3a91 91 0 01-6.94 13.69l-1.15 1.89-5.48 8.98-4.93 8.07-1.6 2.58-1.49 2.45-1.34 2.17A23 23 0 00513 192h-3l-1 4 13-2c-3.21 3.21-3.82 3.3-8 4q-2.52.94-5 2c0 2.65.98 4.58 2 7a140 140 0 01-10.13-11.06c-8.62-10.27-17.2-19.7-27.87-27.94l-2.98-2.43c-12.42-10-26.11-17.43-40.61-23.98C426 140 426 140 423 138l2.02-1.43c13.56-9.73 26.25-20.62 38.77-31.64q12-10.51 24.37-20.59A556 556 0 00498 76c16.62-14.31 16.62-14.31 20-16" fill="#FDDB16"/><path d="M188 61c4.87.43 7.62 2.85 11.13 6l3.46 3.02 1.74 1.53c2.4 2.09 4.88 4.08 7.36 6.08 4.39 3.57 8.6 7.31 12.78 11.12 2.6 2.31 5.26 4.51 7.97 6.69 3.82 3.09 7.5 6.29 11.12 9.62 4.19 3.86 8.51 7.43 12.98 10.95 2.55 2.06 4.97 4.22 7.4 6.43a350 350 0 0013.52 11.71A27 27 0 00285 138c-2.63 2.63-5.68 3.61-9.06 5-14.35 6.1-26.8 14.3-38.94 24q-3.47 2.55-7 5a163 163 0 01-7.25-15.87l-.82-2.02C220 149.25 220 149.25 220 147l-2-1c-.65-1.79-.65-1.79-1.27-4.19-1.93-6.82-4.68-13.27-7.42-19.81a1572 1572 0 01-4.35-10.45C204 109 204 109 204 107l-2-1c-.61-1.69-.61-1.69-1.19-4-1.38-4.91-3.2-9.5-5.18-14.19A265 265 0 01189 70.63l-1.25-3.65C187 64 187 64 188 61" fill="#FC8F01"/><path d="M508 273c1.34 4.02.2 6.99-.87 10.95a924 924 0 01-2.57 9.74l-1.31 5.02q-1.61 6.15-3.25 12.29h21q-2.84 8.55-6 17l-23-1v2h22a68 68 0 01-2.59 9.79l-.94 2.66-.97 2.74-.97 2.77c-2.38 6.74-2.38 6.74-3.53 9.04l-23 1-1 3 22 1a223 223 0 01-5.63 17.06l-1.28 3.35C495 384 495 384 494 385c-7.36-.22-14.71-.98-22-2v2l3.32.18 4.37.26 2.18.12c3.8.22 7.42.57 11.13 1.44a62 62 0 01-2.63 9.86l-.95 2.69-.98 2.76-1 2.82L485 412c-9.16-.62-18.01-2.21-27-4a1311 1311 0 0115.82-43.89 5442 5442 0 0018.84-50.87q5.31-14.57 10.81-29.07l1.03-2.71.95-2.49.84-2.19C507 275 507 275 508 273" fill="#0F4616"/><path d="m417.9 358.88 2.52.01h2.85l3.1.01 3.16.01 10.03.03 6.78.01L463 359a558 558 0 01-13.3 35.06c-3.52 8.57-3.52 8.57-4.7 10.94l-19.07-2.51-6.48-.85-9.32-1.23-2.93-.38-2.73-.37-2.4-.31C400 399 400 399 397 398a84 84 0 015.66-13.55l1.06-2.12 2.21-4.4 5.54-11.04 1.02-2.05c2.93-5.8 2.93-5.8 5.41-5.96" fill="#1B5715"/><path d="M469 181c35.82 30.18 61.15 74.63 69 121v5l-37-2c4.21-18.97 4.21-18.97 6.43-26.71.65-2.62.87-5.22 1.12-7.91.8-4.21 2.3-8.24 3.72-12.28 1.29-3.46 1.29-3.46 1.73-7.1l-2.08.29q-4.71.65-9.42 1.27l-3.27.46c-6.02.79-11.24 1.08-17.23-.02v-1l3.51-.4 4.62-.54 2.3-.26A222 222 0 00505 249l3.63-.5c2.54-.38 4.9-.85 7.37-1.5l-.66-1.68-.84-2.19-.84-2.18C513 239 513 239 513 237h-2v-3h-2l-.99-2.05-1.32-2.7-1.3-2.67c-1.31-2.6-1.31-2.6-3.06-4.78C501 220 501 220 501 218h-3v-3a168 168 0 00-4-4l-.94-2c-1.01-2.22-1.01-2.22-3.5-3.94-2.56-2.06-2.56-2.06-3.88-4.37-1.99-3.19-4.3-5.28-7.12-7.75-7.62-6.73-7.62-6.73-9.56-8.94z" fill="#FDC40F"/><path d="m434.75 324.88 2.31.01h2.61l2.83.01 2.9.01 9.16.03 6.2.01L476 325c-1.59 4.83-3.2 9.65-5 14.4l-1.06 2.76-1.07 2.78-1.09 2.86c-2.64 6.92-2.64 6.92-3.78 9.2h-47c15.13-31.94 15.13-31.94 17.75-32.12" fill="#387815"/><path d="M375 359h38a74 74 0 01-4.14 10.5l-1.24 2.48-1.31 2.58-1.34 2.67A674 674 0 01394 398c-25.76-1.97-25.76-1.97-38-4 5.74-12.02 12.33-23.47 19-35" fill="#155016"/><path d="M285 71c4.87 3.68 7.89 7.39 11.06 12.56l2.87 4.55 1.51 2.41c2.7 4.29 5.48 8.54 8.25 12.79l1.66 2.55c6.2 10.59 6.2 10.59 13.65 20.14l5-21h1c-.41 7.39-1.59 14-4 21l4 1-2.35.47c-18.98 3.66-18.98 3.66-37.28 9.74C288 138 288 138 285 137l.05-2.82c.12-10.95-.59-21.71-1.55-32.62l-.64-7.53-.4-4.63a271 271 0 01-.61-8.83l-.08-2.42-.09-2.19c.41-2.5 1.41-3.37 3.32-4.96" fill="#FDAF05"/><path d="M492 283c-2.24 8.07-5.14 15.83-8.19 23.63L479 319l-44 1 9-19 2.5-8c1.63-3.36 1.63-3.36 4.5-6 7.12-2.33 14.69-2.57 22.13-2.86 2.49-.12 4.91-.35 7.37-.68A76 76 0 01492 283" fill="#649915"/><path d="m113.77 251.05 8.6.26 2.26.07c15.5.48 30.92 1.45 46.37 2.62l1-2a168 168 0 01-5 18.44c-2.1 6.48-3.9 12.82-5 19.56-6.67 0-11.24-3.76-16.58-7.4a195 195 0 00-9.67-5.9c-2.34-1.45-4.6-2.94-6.87-4.47a222 222 0 00-10.36-6.52q-1.35-.82-2.78-1.66a475 475 0 00-5.72-3.37l-2.75-1.66-2.49-1.47q-.88-.75-1.78-1.55v-4c3.64-1.16 6.97-1.06 10.77-.95" fill="#FC5403"/><path d="M495 388c9.64-.21 19.04.42 28.63 1.44l4.08.41c9.87 1.01 9.87 1.01 13.29 2.15-1.61 10.5-4.36 20.73-7 31a2117 2117 0 01-48-10 167 167 0 017.01-20.16z" fill="#0F4715"/><path d="m424 71 2 1c-.73 14.57-1.62 29.13-2.56 43.69l-.42 6.53L422 138l-1.62-.52-7.4-2.37-2.55-.82A144 144 0 00381 128l4-1 .3-1.73c.85-2.75 2.12-4.37 3.89-6.64a266 266 0 0011.68-17.38c4.23-6.68 8.45-13.35 12.82-19.94l1.2-1.83c4.67-7 4.67-7 9.11-8.48" fill="#FDDF19"/><path d="M172 144c4.81 1.49 9.27 3.41 13.81 5.56l2.24 1.06a416 416 0 0117.83 9.15 240 240 0 0016.39 7.94A75 75 0 01230 172q-3.9 3.9-7.83 7.76c-5.62 5.51-10.81 10.99-15.45 17.38-1.9 2.06-2.98 2.51-5.72 2.86l-1.18-2.06a496 496 0 00-10.44-17.31 964 964 0 01-12.44-20.38l-1.74-2.89-1.61-2.72-1.44-2.42c-1.1-2.13-1.87-3.84-2.15-6.22z" fill="#FD8001"/><path d="M196 364c-3.06 3.75-6.04 7.12-9.78 10.2a51 51 0 00-7.63 8.1c-7.17 9-13.15 13.51-24.8 14.85a276 276 0 01-16.03.73c-5.43.17-10.8.73-16.2 1.31l-5.06.48-3.5.33a949 949 0 0113.25-10.44l2.37-1.84Q140.76 378.28 153 369l1.85-1.62c2.75-1.77 4.77-1.9 8.02-2.11l3.49-.24 3.64-.22 3.54-.25c7.5-.49 14.95-.66 22.46-.56" fill="#093A16"/><path d="M508 273c1.34 4.02.2 6.99-.87 10.95l-.61 2.34-1.96 7.4-1.31 5.02q-1.61 6.15-3.25 12.29h21q-2.84 8.55-6 17l-23-1v2h22a68 68 0 01-2.59 9.79l-.94 2.66-.97 2.74-.97 2.77c-2.38 6.74-2.38 6.74-3.53 9.04h-23l1-4c.82-3.37 1.12-4.64 0-8 1.09-3.24 2.44-6.33 3.77-9.48 1.37-3.49 1.37-3.49 1.64-7.25.5-4.34 1.76-8.12 3.32-12.18l.83-2.21 2.63-6.94 1.71-4.57q5.37-14.26 11.1-28.37" fill="#266115"/><path d="M329 359c-1.93 5.73-5.43 10.5-8.79 15.46a59 59 0 00-6.52 12.6c-1.35 2.31-1.35 2.31-3.69 3.94-7.21 1.43-14.73.51-22 0l-5.67-.26q-6.67-.3-13.33-.74c3.12-5.86 6.88-10.93 11-16.12l1.87-2.38q2.55-3.26 5.13-6.5l1.77-2.72c3.03-3.11 4.87-2.93 9.16-2.99l2.01-.04q3.2-.06 6.37-.06l4.25-.08q9.22-.15 18.44-.11" fill="#0D4415"/><path d="m337.64 358.43 2.19.08 2.27.02q3.58.06 7.15.15l4.86.07q5.95.09 11.89.25a74 74 0 01-4.9 10.31l-1.7 3.01-1.77 3.11-1.75 3.11-3.4 5.9a73 73 0 00-2.5 4.6c-.88 1.65-.88 1.65-2.98 3.96-3.02.5-5.2.62-8.18.43l-2.38-.07q-3.72-.14-7.44-.36l-4.96-.25A688 688 0 01312 392a60 60 0 015.12-10.35q.89-1.5 1.84-3.02l1.92-3.13 1.89-3.13c3.52-5.76 3.52-5.76 5.23-8.37l1.73-2.8c2.65-2.57 4.28-2.77 7.9-2.77" fill="#124B16"/><path d="M516 330c7.49-.14 14.85.28 22.31.94l3.21.26c4.57.39 8.99.83 13.48 1.8l-3.13 15.94-.68 3.4-.62 3.14C550 358 550 358 549 360c-8.95.21-17.73-.62-26.62-1.5l-4.49-.43L507 357a174 174 0 017.01-21.85z" fill="#346F16"/><path d="m430 326-4.13 8.75-1.14 2.44A981 981 0 01415 357h-38c8.08-16.15 8.08-16.15 11.87-22.31l1.18-1.95c2.79-4.58 2.79-4.58 3.95-5.74 11.92-1.43 24.02-1.11 36-1" fill="#266715"/><path d="M505 362q3.5.06 7 .31l2.21.14c10.94.72 21.87 1.65 32.79 2.55a106 106 0 01-3.06 17.56l-.57 2.19L542 390c-6.07.08-11.94-.18-17.97-.87l-2.45-.27-7.64-.86-5.23-.58L496 386a866 866 0 015.62-16.5l1.29-3.66C504 363 504 363 505 362" fill="#195316"/><path d="M449 287a128 128 0 01-9.09 19.58 50 50 0 00-4.41 10.3c-.91 1.8-.91 1.8-2.5 3.12-5.32 1.2-10.58 1.07-16 1l-5.5.04q-7.25.03-14.5-.04l1.43-2.72.95-1.8q1.08-2 2.19-4c2-3.59 3.67-7.01 4.91-10.93 1.69-4.71 3.28-8.65 7.52-11.55 11.17-3.38 23.45-3.03 35-3" fill="#3C7A14"/><path d="M347 328c0 3.18-.38 4.02-1.94 6.66l-1.27 2.16-1.35 2.24-1.27 2.16q-1.32 2.23-2.73 4.41c-1.51 2.38-1.51 2.38-2.68 5.14-1.64 3.18-2.9 5.04-5.76 7.23-6.11 1.65-12.69.94-18.94.63q-2.62-.09-5.25-.14A548 548 0 01293 358c2.2-3.94 4.36-7.69 7.13-11.26l1.7-2.2 1.73-2.23 3.44-4.45 1.53-1.96c1.53-1.88 1.53-1.88 2.67-4.09 2.75-2.77 5.83-2.52 9.53-2.64l2.27-.12q3.6-.17 7.19-.3l4.87-.23q5.97-.29 11.94-.52" fill="#114A15"/><path d="M385 327a68 68 0 01-5.22 10.7l-1.88 3.22-1.96 3.33-1.97 3.38c-4.83 8.23-4.83 8.23-5.97 9.37q-2.35.23-4.71.32l-6.1.24-3.17.13c-7.01.27-14 .45-21.02.31a59 59 0 015.19-10.45l1.86-3.07 1.95-3.17 1.95-3.2c4.79-7.85 4.79-7.85 7.05-10.11 2.59-.32 2.59-.32 5.86-.41l3.57-.12 3.76-.09 3.69-.12c5.71-.18 11.41-.31 17.12-.26" fill="#175515"/><path d="m405 290 1 2c-1.12 2.44-1.12 2.44-2.86 5.49l-1.88 3.33-2.01 3.49-1.96 3.46q-2.62 4.62-5.29 9.23l-1.53 2.82C389 322 389 322 386.13 322.71l-3.57.1-1.94.08q-3.3.1-6.62.11l-2.66.03q-8.67.05-17.34-.03 2.9-5.06 5.86-10.07l2.37-4.04q1.94-3.27 3.89-6.51l1.24-2.12 1.21-1.99 1.06-1.76c3.42-3.75 8.41-3.9 13.2-4.36l7.98-.77 4.13-.41z" fill="#246115"/><path d="M322 141c-2.74 2.74-5.71 2.89-9.38 3.63-9.74 2.08-18.7 5.77-27.83 9.7-1.79.67-1.79.67-3.79.67v2h-2l-1 2h-3c-2.16 1.21-2.16 1.21-4.38 2.81l-2.4 1.65L266 165c-4.6 3-4.6 3-8 3l-1 3c-2.56 3-4.2 4.17-8 5-3.25 2.13-6.14 4.78-9.07 7.33l-3.98 3.4c-3.21 2.74-6.19 5.41-8.83 8.71L225 198h-2l-.69 2.19c-1.28 2.75-2.62 4.12-4.81 6.16-2.74 3.02-4.73 6.56-6.85 10.03A55 55 0 01206 223h-2l-.31 1.69c-1.06 3.57-3.18 6.5-5.15 9.63a81 81 0 00-7.68 15.65C190 252 190 252 188 254a148 148 0 00-5.17 15.35c-.89 2.84-1.94 5.57-3.02 8.34-1.62 4.32-1.9 7.68-1.81 12.31l-3 6c-.54 2.98-.76 5.98-1 9-.85 6.7-.85 6.7-2 9 .21 2.07.58 4.08.94 6.13L173 322l-2 2a118 118 0 00-.13 8.63l.03 2.42.1 5.95 2.81-2c3.19-2 3.19-2 6.19-2v-2l5-3c2.39-1.93 4.69-3.97 7-6 4.63-4 4.63-4 8-4l1-3h3v-2h2v-2l3-1 2-3h3v-2l3-1 .87-1.87c1.98-3.74 5.69-4.92 9.38-6.69 2.85-1.15 2.85-1.15 3.75-3.44l4-2 1-2c4.5-3 4.5-3 7-3v-2h2l1-2c2.48-.6 2.48-.6 5.62-1.06l3.28-.5q3.64-.52 7.29-1c2.71-.14 2.71-.14 3.81-1.44l3.31.06c5.65.08 11.19-.85 16.69-2.06l1-1q3.53-.1 7.06-.06l3.91.02 3.03.04c-3 1.69-5.54 2.38-8.95 2.8l-2.97.39-3.21.4-6.76.94q-5.32.74-10.63 1.41C254 285.75 244.15 287.16 234 298a119 119 0 01-4.77 3.58L227 303.2l-2.25 1.61a430 430 0 00-20.18 15.64 354 354 0 01-14.41 11.21 782 782 0 00-9.54 7.19l-4.28 3.25-1.97 1.49-1.75 1.34C171 346 171 346 168 347c-.43-15.26.7-29.91 3-45l.34-2.31c1.7-11.28 4.92-21.94 8.66-32.69l1.27-3.66c7.12-19.04 17.14-37.37 29.73-53.34l1.42-1.8c23.45-29.29 68.81-68.81 109.58-67.2" fill="#FC2A07"/><path d="m370 295-6.69 10.56-1.89 3-3.73 5.8a81 81 0 00-2.91 4.88c-1.55 2.67-2.9 4.5-5.92 5.39-2.65.29-5.2.34-7.86.31l-2.82.04q-4.09.06-8.18.02l-4.27.04q-4.37.03-8.73-.04l1.12-1.62c2.73-4.01 5.24-7.99 7.44-12.31 3.79-6.81 7.35-12.76 15.09-15.24 7.79-1.63 22.13-4.44 29.35-.83" fill="#185315"/><path d="m253.13 360.94 4.88.06a148 148 0 01-14.5 17.2c-1.66 1.88-1.66 1.88-3.22 4.57-5 7.47-5 7.47-9.16 8.85-5.2.92-10.43.73-15.7.57l-4.78-.01q-5.83 0-11.65-.18 2.99-3.52 6-7l2.37-2.72c18.87-21.31 18.87-21.31 28.07-22.24 2.9.03 5.72.25 8.6.69 3.03.42 6.03.29 9.09.2" fill="#0A4116"/><path d="M214.14 335.96q4.93-.02 9.86.04a270 270 0 01-15.56 16.87l-2.54 2.63-2.46 2.5-2.22 2.25c-8.78 6.92-29.32 3.87-40.22 3.75 6.13-6.39 13.08-11.8 19.96-17.34a138 138 0 005.04-4.32c8.69-7.3 17.49-6.26 28.14-6.38" fill="#0B3D18"/><path d="m239.48 398.8 13.2.01 12.85.01 6.06.01c10.85.01 21.6.17 32.41 1.17v1l-15.17.48-5.15.16q-3.71.14-7.42.23l-2.32.1c-5.49.14-5.49.14-7.9-.47a26 26 0 00-6.53-.63h-33.08c-4.6 0-8.89.26-13.43 1.13q-2.7.2-5.4.31l-2.95.13-3.03.12-3.1.13-7.52.31v-2l-3 2c-2.58.11-5.06.14-7.63.06q-3.68-.09-7.37-.06l-1 1c-3.37.07-6.73 0-10.1-.07-2.8-.27-2.8-.27-3.9 1.07-2.33.07-4.64 0-6.97-.07-2.03-.17-2.03-.17-3.03 1.07q-2.66.43-5.32.75l-3.32.4-3.49.41-3.42.42c-9.3 1.1-9.3 1.1-13.7 1.04L116 409l-1 1-3.19-.07c-3.86.07-6.2.81-9.8 2.07q-4.34.83-8.72 1.53c-2.25.24-2.25.24-3.29 1.47q-2.34.23-4.69.37a96 96 0 00-23.48 4.72C59 421 59 421 55 421l-1 2-3.94.31a29 29 0 00-15.06 5.7c-1.2 3.1-1.2 3.1-2 6-4.86 1.7-9.88 2.65-14.94 3.61l-2.02.41c-4.75.9-9.2 1.08-14.04.97l1-5 2 1q3.14-1.32 6.18-2.82c39.36-18 83.74-24.83 126.38-29.93l2.5-.3c33.07-4.02 66.15-4.25 99.42-4.15" fill="#153F17"/><path d="m501 262-3.44 8.94-.98 2.57-.95 2.45-.87 2.27C494 280 494 280 493 281q-4.42.55-8.85.97a804 804 0 01-11.21 1.09l-5.77.57L453 285l2-6 1.1-3.55c3.61-9.28 3.61-9.28 7.68-11.36 5.18-1.59 10.53-1.77 15.91-2.03l4.86-.41c12.46-1.01 12.46-1.01 16.45.35" fill="#8BB314"/><path d="M282 332a107 107 0 01-9.81 12.88l-1.5 1.73a261 261 0 01-3.11 3.52c-1.64 1.86-1.64 1.86-3.02 4.08-2.56 3.66-4.25 5.53-8.74 6.42-3.78.16-7.48.07-11.26-.13l-3.95-.11q-4.81-.13-9.61-.39l1.2-1.4c3.26-3.8 3.26-3.8 6.5-7.61a124 124 0 013.23-3.66c1.59-1.79 3.07-3.59 4.55-5.47 4.03-4.84 7.55-8.85 14.02-9.85 3.79-.31 7.55-.29 11.35-.11 3.38.16 6.76.12 10.15.1" fill="#0B4217"/><path d="M276.3 359.96q3.84-.02 7.7.04c-5.28 8.46-11.47 16.26-17.56 24.13-1.5 1.87-1.5 1.87-2.75 4.09-1.69 1.78-1.69 1.78-4.42 2.24l-3.25-.07-3.53-.04-3.68-.1-3.72-.05q-4.55-.07-9.09-.2a219 219 0 0112.56-15.62l3.32-3.8 1.61-1.81c1.51-1.73 1.51-1.73 2.81-3.53 2.06-2.77 3.26-4.12 6.64-5.04l3.18-.07 3.43-.12q3.38 0 6.74-.05" fill="#0C3E16"/><path d="M560 356h1q.08 10.4.11 20.8l.04 7.05c.24 33.23.24 33.23-3.15 45.15a75 75 0 01-15-3c.68-7.4 2.49-14.4 4.34-21.58l1-3.91 2.09-8.16 2.67-10.44 2.56-9.99.97-3.79.9-3.5.79-3.08q.76-2.8 1.68-5.55" fill="#0E4213"/><path d="M522 312c8.64-.14 17.14.28 25.75 1l3.59.29 8.66.71-4 17c-7.12.11-14.1-.32-21.19-.94l-3.19-.26c-4.92-.42-9.77-.87-14.62-1.8l2.15-8.11A83 83 0 01522 312" fill="#528814"/><path d="m221 363-2.25 2.23-8.27 8.23-3.57 3.56-5.15 5.12-1.61 1.6a49 49 0 00-5.76 6.56c-1.74 2.12-2.7 2.36-5.39 2.7q-2.49.21-4.98.32l-2.84.12-5.91.25-7.27.31c4.15-5.01 8.5-9.5 13.31-13.87 5.12-4.7 10.06-9.45 14.76-14.56 4.17-3.4 9.94-2.88 15.12-3.2l2.19-.15c5.38-.34 5.38-.34 7.62.78" fill="#083714"/><path d="m254 306-4.18 4.86q-1.84 2.16-3.62 4.37c-7.3 9-13.68 16.42-25.69 17.74-4.86.24-9.66.23-14.51.03l-4.21-.01-2.79.01a102 102 0 0112.06-10.67 199 199 0 006.31-5.22c6.99-5.91 12.19-9.63 21.63-10.11l4.25-.62c3.64-.37 7.1-.46 10.75-.38" fill="#0A4118"/><path d="m459 266-2 6-1.02 3.36c-1.32 3.64-2.65 6.53-4.98 9.64-3.87 1.75-7.51 1.92-11.73 1.97-2.62.04-5.23.18-7.85.33q-7.71.44-15.42.7l2-5 1.3-3.26c4.13-8.99 4.13-8.99 8.27-10.96 3.16-.52 6.22-.67 9.43-.78 2.8-.33 5.59-.73 8.37-1.12 4.59-.59 9.01-.98 13.63-.88" fill="#5A9216"/><path d="m308 301-1.36 1.48a270 270 0 00-13.96 16.73c-1.98 2.55-3.89 5.1-5.68 7.79-2.58.51-2.58.51-5.81.69l-3.5.19q-8.34.25-16.69.12a388 388 0 0114.96-16.66q1.76-1.87 3.53-3.72c1.63-1.69 1.63-1.69 3.31-3.99 3.67-2.71 7.82-2.62 12.26-2.94l2.76-.26c6.72-.58 6.72-.58 10.18.57" fill="#0F4617"/><path d="M297.88 330.94h2.08l5.05.06c-1.81 4.14-4.52 7.59-7.2 11.19l-1.38 1.88q-1.44 1.95-2.9 3.85c-1.6 2.1-1.6 2.1-3.03 4.56-4 6.13-4 6.13-8.21 7.23-3.12.18-6.1.08-9.23-.14q-1.58-.08-3.23-.13-3.92-.15-7.83-.44l1.15-1.34q4.73-5.46 9.29-11.03l2.32-2.83a138 138 0 004.17-5.47l1.75-2.45 1.51-2.2c4.08-3.8 10.42-2.81 15.69-2.74" fill="#0C4315"/><path d="m418 271-1.68 2.92-2.2 3.83-1.1 1.92c-2.12 3.62-2.12 3.62-3.73 7.48C408 289 408 289 405.1 289.73l-3.68.32-1.98.18q-3.13.28-6.25.52l-4.18.38c-10.69.95-10.69.95-16.01.87l3.31-5.69 1.87-3.2L380 280l1.37-2.82c1.63-2.18 1.63-2.18 4.24-3.04l3.14-.33 3.49-.41 3.76-.4 7.87-1.12c4.76-.67 9.32-.97 14.13-.88" fill="#3C7716"/><path d="M489 439c8.92.25 16.51 1.14 25.02 4.02a78 78 0 0010.44 2.48 138 138 0 0117.67 4.56c4.21 1.38 8.52 2.13 12.87 2.94v2l1.8.08c5.98.41 10.89 1.75 16.45 3.94a59 59 0 0010.56 2.49c2.33.52 4.07 1.42 6.19 2.49q2.7.81 5.44 1.5c3.66.94 7.07 2.06 10.56 3.5a101 101 0 0015.96 4.47c2.04.53 2.04.53 3.94 1.49 2.56 1.27 5.09 1.94 7.85 2.67l2.98.78 2.27.59v2l3-1q3.53 1.42 7 3h2v2l3-1 3 1v2l9 1v2l3-1v2l1.86.18 2.45.26 2.43.24C678 492 678 492 681 493v2h8l1 2q3.26 1.43 6.63 2.63l3.66 1.35A28 28 0 00711 502l3-2 2.25 2.31c2.57 2.65 2.57 2.65 5.06 4.38L723 508v2c-8.8-1.98-17.25-4.68-25.75-7.67q-5.76-2.02-11.54-4.01l-2.42-.83c-10.22-3.52-20.52-6.82-30.81-10.13q-12.31-3.95-24.55-8.09C582.42 463.86 535.91 450.44 489 440z" fill="#A7D014"/><path d="m240.38 333.9 2.74.04 2.61.03 2.27.03c-17.9 24.75-17.9 24.75-28.04 27.96-6.33 1-12.6.81-18.96.04a332 332 0 0115.75-17.38l2.55-2.77c7.12-7.33 7.12-7.33 12.95-7.95 2.73 0 5.41.08 8.13 0" fill="#0A3915"/><path d="M330 298a479 479 0 01-12.81 18.5l-1.77 2.45c-4.28 5.91-4.28 5.91-5.42 7.05q-2.35.23-4.69.32l-2.86.12-3.01.12-3.02.13-7.42.31v-2h2l.67-1.57c1.85-3.38 4.23-6.25 6.64-9.24l2.87-3.58 1.44-1.79c1.41-1.8 1.41-1.8 2.57-3.78 2.31-3.77 3.19-4.86 7.62-6.16a98 98 0 014.19-.32l2.12-.19c3.63-.31 7.24-.39 10.88-.37" fill="#0F4615"/><path d="m480 359 23 2a227 227 0 01-5.62 17.06l-1.29 3.35C495 384 495 384 494 385a141 141 0 01-6.81-.31l-3.77-.24c-5.07-.67-5.07-.67-7.42-2.45-1.64-2.81-2.2-4.21-1.39-7.39l1.14-2.42c2.09-4.52 2.98-8.09 4.25-13.19" fill="#164D17"/><path d="M381 275a75 75 0 01-5.44 11.25l-1.81 3.2C372 292 372 292 369 293c-3.36.47-6.75.75-10.13 1.06l-2.76.28c-5.73.54-11.35.75-17.11.66l3.25-5.19 1.83-2.92c5.03-7.58 5.03-7.58 8.34-8.75l2.77-.33 3.16-.41 3.65-.4 4.5-.56C378.18 275 378.18 275 381 275" fill="#266117"/><path d="M276 303c0 3 0 3-1.72 4.98l-2.34 2.21c-3.01 2.9-5.9 5.82-8.63 9-8.97 10.39-8.97 10.39-15.42 11.02l-2.22.11-2.42.12-2.5.12-2.55.13-6.2.31c4.27-5.37 9.04-9.92 14.15-14.47a53 53 0 007.64-8.32c2.44-2.92 4.19-3.76 7.95-4.33q2.56-.2 5.13-.32l2.67-.19q3.23-.22 6.46-.37" fill="#0D3E17"/><path d="M321 283a239 239 0 01-4.33 6.54c-1.66 2.35-1.66 2.35-2.81 4.55-1.8 2.83-3.36 4.51-6.69 5.4A110 110 0 01286 301q2.02-2.45 4.12-4.85 1.95-2.24 3.79-4.55c5.35-6.18 9.66-7.74 17.76-8.48q4.66-.16 9.33-.12" fill="#134717"/><path d="m499 310 22 1a417 417 0 01-6 17h-7v-1l-11-2c-.25-10.5-.25-10.5 2-15" fill="#427A15"/><path d="M271 290c-5.62 7.62-10.84 13.77-20.5 15.6-6.14.82-12.3 1.24-18.5 1.4 16.04-16.27 16.04-16.27 27-17l2.77-.35c6.84-.84 6.84-.84 9.23.35" fill="#0D4319"/><path d="m343 280-3.25 5.19-1.83 2.92L336 291l-1.77 2.78c-3.07 3.06-5.41 3.11-9.67 3.53l-3.93.43c-2.9.21-5.73.32-8.63.26q2.1-3.3 4.32-6.54 1.54-2.23 2.92-4.55c2.34-3.44 3.97-4.7 8.08-5.78A94 94 0 01343 280" fill="#174E14"/><path d="M294 287c-12.36 15.46-12.36 15.46-22.85 16.77-3.74.24-7.41.32-11.15.23 2.61-6.28 9.24-13.25 15.41-16.12 2.23-.51 4.31-.75 6.59-.88l2.45-.35c5.99-.84 5.99-.84 9.55.35" fill="#104819"/><path d="M488 328c1.59 4.76-1.04 8.31-2.97 12.77-1.1 3.45-.81 4.81-.03 8.23l-2 4 10 1v1h-11l-.52 2.27a91 91 0 01-5.81 17.57c-.77 2.48-.53 3.74.33 6.16l7 1v1h-11v2l3 1-3 1-1 3-4-2c.54-6.7 2.35-12.37 4.71-18.63l1.12-3.02 2.34-6.28q1.8-4.78 3.57-9.58l2.28-6.12 1.07-2.88c1.75-4.64 3.58-9.11 5.91-13.49" fill="#082E0F"/><path d="m250 304 5 1 1 3c-13.37 13.55-13.37 13.55-19.61 18.73-1.52 1.24-1.52 1.24-2.39 3.27h8c-3.67 4.77-3.67 4.77-7.38 5.41l-5.24.28c-3.31.43-5.09 1.95-7.38 4.31l1-3h-17v-5l1.84.18c9.88.72 19.35.68 27.23-5.94 6.49-5.9 12.32-12.5 17.93-19.24z" fill="#EFF3EF"/><path d="m290.16 277.9 3.9.04 3.91.02 3.03.04c-3 1.7-5.54 2.37-8.95 2.8l-2.97.4q-1.58.18-3.21.4-3.38.45-6.76.93-5.32.74-10.64 1.41C254 285.75 244.26 287.07 234 298a137 137 0 01-5.05 3.83l-2.37 1.73-2.33 1.7-4.73 3.44-2.27 1.65A852 852 0 00207 318l-1-3 3-1 2-3h3v-2l3-1 .87-1.88c1.98-3.73 5.69-4.9 9.38-6.68 2.85-1.15 2.85-1.15 3.75-3.44l4-2 1-2c4.5-3 4.5-3 7-3v-2h2l1-2c2.48-.6 2.48-.6 5.62-1.06l3.28-.5q3.64-.52 7.29-1c2.71-.14 2.71-.14 3.81-1.44l3.31.06c5.65.08 11.19-.86 16.69-2.06 1-1 1-1 4.16-1.1" fill="#FD380B"/><path d="M348 328c.89 2.44 1.18 3.57.16 6l-1.38 2.14-1.55 2.46-1.73 2.65-3.61 5.68-1.93 3q-4.9 7.7-9.71 15.45l-1.91 3.04Q319.02 380.12 312 392l-2-3c12.88-20.41 12.88-20.41 19-30l-2.99.49c-4.05.58-8.06.66-12.14.64l-2.22-.01c-6.58-.05-13.1-.48-19.65-1.12v-1l3.3.21c19.42 1.91 19.42 1.91 37.58-2.96 4.12-4.3 6.33-9.36 8.27-14.93 1.16-3.16 2.76-5.7 4.6-8.51z" fill="#DFE9DF"/><path d="M662 472c4.56 1 8.33 3.08 12.44 5.25l2.5 1.32c9.97 5.34 19.53 11.34 29.06 17.43l1.94 1.2q2.08 1.33 4.06 2.8v2a96 96 0 01-10.39-4.76l-3.13-1.63-3.29-1.73A1404 1404 0 00666 479l-6-3z" fill="#EAF1DE"/><path d="m379 278 3 1-8 12 5.04-.44 6.59-.56 3.31-.29 3.22-.27 2.96-.26c2.97-.19 5.91-.21 8.88-.18l1 2-2.58.24-9.54.93-4.11.4-5.94.58-3.6.35c-5.44.84-5.44.84-9.62 4.14l-1.07 1.96-1.23 2.17-1.25 2.29-2.61 4.63-1.26 2.25c-2.2 3.82-4.66 7.45-7.19 11.06l3 2h-5l-1-2c1.36-2.6 1.36-2.6 3.4-5.85l1.08-1.73 3.46-5.48 3.44-5.5 3.14-4.97c1.57-2.13 1.57-2.13 1.48-3.47l-3.36.29-4.39.34-2.21.19c-4.29.31-6.08.16-10.04-1.82l24-2 2-6c1.29-2.34 1.29-2.34 2.62-4.37z" fill="#E1EADD"/><path d="M322 141c-2.74 2.74-5.71 2.89-9.38 3.63-9.74 2.08-18.7 5.77-27.83 9.7-1.79.67-1.79.67-3.79.67v2h-2l-1 2h-3c-2.16 1.21-2.16 1.21-4.38 2.81l-2.4 1.65L266 165c-4.6 3-4.6 3-8 3l-1 3c-2.56 3-4.2 4.17-8 5q-2.04 1.45-4 3l-8 6c0-3 0-3 1.96-5.06 20.61-17.17 54.86-40.01 83.04-38.94" fill="#FC3C09"/><path d="m427 332 2 2-1.01 1.97-4.49 8.84-1.59 3.11-1.5 2.97-1.4 2.75c-1.21 2.39-1.21 2.39-1.01 5.36a71 71 0 01-3 3c-1.08 1.73-1.08 1.73-1.99 3.65l-1.09 2.18-1.15 2.34-1.2 2.41-3.76 7.61-2.56 5.16L397 398l3 1h-4v-2l-2-1 1.64-3.15 6-11.58a2309 2309 0 016.32-12.22l1.18-2.26 1.09-2.12.97-1.86A29 29 0 00413 357h2l.68-2.38c1.73-4.74 4.06-9.06 6.44-13.49l1.42-2.67z" fill="#E7EEE5"/><path d="M518 317h2l-.94 4.38-.52 2.46C518 326 518 326 517 328l3.77.18c8.76.44 17.5.9 26.23 1.82-3.56 2.25-6.16 2.11-10.3 1.76l-3.65-.3-3.8-.33-3.85-.32q-4.7-.39-9.4-.81l-.57 2.14a242 242 0 01-4.93 16.49l-1.22 3.6L508 355l-3 1c2.56-9.16 5.8-18.05 9-27h-22v-2l7.56-.06 2.14-.03A77 77 0 01515 328z" fill="#E7EDDF"/><path d="M461.81 285.94c1.46 0 1.46 0 2.96.03 1.1 0 1.1 0 2.23.03v1c-5.05 1.04-9.88 1.1-15 1l-.26 2c-.97 3.94-2.7 7.24-4.56 10.82l-1.04 2.04q-.97 1.92-1.97 3.84-2.6 5.15-5.17 10.3h39l3-9q.96-2.5 2-5c1 3 1 3-4 16l-44 1 9-19 5.3-11.51c1.7-2.5 1.7-2.5 4.04-3.35q4.23-.24 8.47-.2" fill="#32740B"/><path d="M508 273c1.76 5.29-.67 10.84-2.01 16.13q-.8 3.2-1.57 6.41c-2.24 9.09-4.8 18.26-9.42 26.46l-3 1c-1.36-4.5-.54-7.18 1.1-11.52l.69-1.88 2.27-5.97 1.53-4.09A839 839 0 01508 273" fill="#0D3E12"/><path d="m456 272 2 3-4 9 40-4-2 4c-2.82.54-2.82.54-6.56.63l-4.29.16-2.43.08c-5.41.26-10.82.74-16.22 1.19l-6.59.54-4.91.4-.9 2.85A20 20 0 01446 297l-1-2q1.4-3.54 3-7l-1.9.07-2.48.06-2.46.07C439 288 439 288 437 286l14-1 1.37-4.25c1-3.07 2.12-5.9 3.63-8.75" fill="#E9EED6"/><path d="M281 331h2c-.43 4.91-2.9 7.71-6.06 11.25l-1.49 1.71L271 349l-2.51 2.85q-2.73 3.08-5.49 6.15l10 2v1l-2.39-.31c-4.56-.18-8.61-.23-12.37 2.67-3.64 3.6-6.74 7.62-9.79 11.71a170 170 0 01-4.04 5.15q-2.74 3.36-5.41 6.78l-3-1 1.87-2.02c10.17-11.01 10.17-11.01 19.13-22.98l-7-1v-1l3.87.69c3.55 0 4.86-.47 7.64-2.75q3.25-3.57 6.24-7.36 1.85-2.32 3.78-4.58c6.15-6.33 6.15-6.33 9.47-14" fill="#DCE6DD"/><path d="m668 489 1 2c2.03.43 2.03.43 4.38.56 2.81.23 4.91.54 7.62 1.44v2h8l1 2q3.26 1.43 6.63 2.63l3.66 1.35A28 28 0 00711 502l3-2 2.25 2.31c2.57 2.65 2.57 2.65 5.06 4.38L723 508v2c-10.15-2.25-19.83-5.57-29.62-9l-9.17-3.19-2.19-.76A289 289 0 00666 492z" fill="#A3CC16"/><path d="m392 330 2 1-13 23h33l6-12 1 3-6 12h-38c7.87-15.75 7.87-15.75 11.44-21.37l2.06-3.28z" fill="#083806"/><path d="m495 381 2 3-1 2 3.21.11c14.34.6 28.54 2.19 42.79 3.89l-1 2-46-4-1 2-1-3-2.82-.18c-12.27-.84-12.27-.84-18.18-1.82v-2c7.37-.15 14.66.42 22 1z" fill="#E7F0E7"/><path d="m320 282 3 1a233 233 0 01-10 14l1.86-.07 2.45-.05 2.43-.08c2.26.2 2.26.2 5.26 2.2l-3.43.08-4.45.17-2.26.04c-2.43.07-2.43.07-5.86.71-1.31 1.65-1.31 1.65-2 4a75 75 0 01-2.43 3.21l-1.41 1.78-1.47 1.82A283 283 0 00291 325l-2-2 6.19-7.62 1.75-2.17q4.98-6.14 10.06-12.21l-14 1-1-2 3.33.05c9.51-.22 9.51-.22 17.25-5.23 5.14-5.83 5.14-5.83 7.42-12.82" fill="#E5EDE4"/><path d="M488 328c1.59 4.76-1.04 8.31-2.97 12.77-1.1 3.45-.81 4.81-.03 8.23l-2 4 10 1v1h-11l-2 7-2-1-6 16h-2c2.56-9.16 5.85-18.02 9.15-26.93l2.93-7.96 1.87-5.05.88-2.41c2.05-5.53 2.05-5.53 3.17-6.65" fill="#0A260D"/><path d="m429 333 1 2c-.8 2.06-.8 2.06-2.09 4.57l-1.38 2.72-1.47 2.84L420 355q9.13-.14 18.26-.32l6.22-.1 8.92-.17 2.82-.03 2.61-.06 2.3-.04c2.11-.13 2.11-.13 3.87-2.28l-1 5h-47c9-19 9-19 12-24" fill="#0B4703"/><path d="m205 399 32.52-.05 15.11-.03 14.61-.01 5.54-.02c10.46-.03 20.79.16 31.22 1.11v1l-15.16.48-5.16.17-7.41.23-2.33.08c-5.5.15-5.5.15-7.81-.45-2.7-.65-5.22-.67-8-.72l-3.58-.06-3.85-.05-3.95-.06-10.37-.15-10.6-.16L205 400z" fill="#0C3905"/><path d="m465.16 264.9 3.9.04 3.91.02 3.03.04v1l-3.13.37c-3.58.58-6.58 1.1-9.87 2.63-1.44 2.51-1.44 2.51-2 5h-2v6c4.77 1.23 9.42 1.11 14.31 1.06h2.54L482 281v1l-28 3-1-2c.6-1.77.6-1.77 1.62-3.88l1.09-2.29 1.16-2.39 1.15-2.4c3.37-7.02 3.37-7.02 7.14-7.14" fill="#518D07"/><path d="M531 280c2 1 2 1 2.69 2.96l.6 2.56.66 2.79.68 2.94.69 2.89c1.05 4.51 1.68 8.17 1.68 12.86l-37-2 1-6 2 3c2.72.59 2.72.59 5.93.7l3.6.23 3.78.2 7.37.44 3.31.18c2.74.23 5.33.65 8.01 1.25l-.46-1.97-2.04-8.84-.72-3.11-.69-2.97-.63-2.75C531 283 531 283 531 280" fill="#FCA412"/><path d="m248.35 361.64 1.65.36v1l-3.96-.4c-10.08-.4-17.34.98-24.84 7.88-6.1 5.83-11.68 12.15-17.2 18.52l20 1v1l-25 1 6-7 2.45-2.9c11.94-13.98 21.05-24.21 40.9-20.46" fill="#011001"/><path d="M375 359h38a59 59 0 01-6 13c-1-3-1-3-.22-4.82L410 362q-7.12-.3-14.25-.44a262 262 0 01-4.85-.16c-9.09-.8-9.09-.8-17.1 2.42A23 23 0 00371 370l-1-2z" fill="#083805"/><path d="m36 419 2 1-2.5 1.31L33 423v3l-1.69.58-7.75 2.67-2.66.91A178 178 0 004 437c1.79-5.38 8.01-7.4 12.85-9.93 3.73-1.86 7.55-3.52 11.4-5.13l2.24-.94a91 91 0 015.51-2" fill="#DAE0D8"/><path d="M560 356h1v51l-3-1-.05-15.64-.03-5.33-.02-7.64-.01-2.41c0-3.26.07-5.87 1.11-8.98v-3.5c0-3.5 0-3.5 1-6.5" fill="#245627"/><path d="M416 359h47l-2 6-2-1 1-3-45 1z" fill="#0B4A03"/><path d="m515 244 4 1-1 2 1.5 3 1.5 3-1 2h-3l-2-4-2.17.29q-4.9.65-9.83 1.27l-3.41.46c-6.14.77-11.5 1.11-17.59-.02v-1l3.51-.4 4.61-.54 2.31-.26A222 222 0 00505 249l3.62-.5c2.54-.38 4.92-.81 7.38-1.5z" fill="#FED119"/><path d="M353.31 136.81h3.04c7.38.05 14.41.63 21.65 2.2v1l-3.56-.03-13.15-.04-5.67-.02-8.19-.02-2.54-.02c-4.72 0-9.25.17-13.89 1.12l-2 2v-2l-6 1v-2c10.1-2.45 19.92-3.2 30.31-3.19" fill="#FE6E0B"/><path d="m378 284 2 4c6.41.2 12.63-.17 19-.87l2.28-.24c4.32-.41 4.32-.41 7.72-2.89l-1 5-12.54 1.28-4.27.44-6.14.62-3.73.38c-2.8.24-5.52.34-8.32.28z" fill="#1B570C"/><path d="M646 464c5.69 1.65 10.77 4.29 16 7v4c-6.69-.45-12.03-3.07-18-6z" fill="#E9EEDE"/><path d="M433 259v2q-7.77 1.11-15.53 2.19l-5.28.75-7.61 1.06-2.37.35c-3.98.54-7.32.76-11.21-.35 3.38-2.25 5.01-2.33 9-2.56 3.29-.2 5.87-.4 9-1.44q2.84-.26 5.69-.44c3.74-.27 7.2-.67 10.81-1.69 3.37-.84 4.37-.85 7.5.13" fill="#FDBC15"/><path d="M681 487c5.81.93 10.41 3.59 15.56 6.31l2.87 1.48 2.76 1.45 2.51 1.31A31 31 0 01711 503c-5.26.32-8.45-.33-13-3v-4c-2.76-.6-5.16-1-8-1v-3l-1.69-.25c-3.01-.98-4.93-2.7-7.31-4.75" fill="#84B411"/><path d="m335.23 358.89 4.3.02h2.28q3.63 0 7.25.03h4.9q6.01.04 12.04.06c-1.27 3.36-2.26 5.64-5 8l2-5q-6.54-.11-13.08-.16l-10.85-.13-3.89-.05c-3.17.06-3.17.06-5.13 1.86L329 365c2.3-5.97 2.3-5.97 6.23-6.11" fill="#244522"/><path d="m478.56 251.94 2.44.06-1 3a2835 2835 0 01-17.23 2.37 1201 1201 0 01-10.13 1.38c-3.73.26-6.97-.08-10.64-.75 3.2-1.9 5.33-2.1 9-2l2.18-.43c3.56-.72 7.1-1 10.71-1.3 2.1-.05 2.1-.05 3.11-1.27h8c1-1 1-1 3.56-1.06" fill="#FDCA12"/><path d="M203 363v1l-2.45.46c-5.23 2.27-8.52 6.09-12.43 10.17l-2.37 2.42q-2.89 2.97-5.75 5.95l-2-2c5.48-5.58 10.97-11.02 17-16l-3.21.07-4.17.06-2.11.05A92 92 0 01180 365l-2-2c16.71-1.33 16.71-1.33 25 0" fill="#E6EEE8"/><path d="M515 333c1.5 3.9.45 6.62-.81 10.5l-1.08 3.41A51 51 0 01510 354c2.36 1.18 4.16 1.3 6.79 1.54l2.85.26 2.99.26 3 .28 7.37.66v1c-8.75.11-17.3.01-26-1 2.04-8.27 4.82-16.1 8-24" fill="#113D0D"/><path d="M254 306c-21.13 24.95-21.13 24.95-28.07 26.17-3.18-.04-5.88-.3-8.93-1.17v-1l2.48-.1c9.85-.87 14.35-4.3 20.83-11.52l2.57-2.72q3.1-3.3 6.12-6.66l-6-1c3.63-2.33 6.77-2.16 11-2" fill="#011502"/><path d="M271 290c-5.62 7.62-10.84 13.77-20.5 15.6-6.14.82-12.3 1.24-18.5 1.4 2.31-2.5 2.31-2.5 5-5h3l-1 1c10.78.75 10.78.75 20.36-3.29A74 74 0 00266 292l-2-2c4.75-1.13 4.75-1.13 7 0" fill="#031A04"/><path d="M285 71c6.57 5 6.57 5 8 10l-2.31-1.06c-2.74-1.26-2.74-1.26-5.69.06l-1 13h-1c-.58-4.97-1.09-9.94-1.25-14.94l-.08-2.15c.42-2.46 1.45-3.33 3.33-4.91" fill="#EEA609"/><path d="M433 325c12.84-.22 25.32-.24 38 2v1h-32v-1l-6-1z" fill="#4E8926"/><path d="m376 281 1 2c-.89 2.13-.89 2.13-2.25 4.56l-1.33 2.44c-1.42 2-1.42 2-4.42 3-3.36.47-6.75.75-10.13 1.06l-2.76.28c-5.73.54-11.35.75-17.11.66 2-3 2-3 4.03-3.42l2.48-.06 2.74-.09 2.87-.05q5.45-.16 10.88-.38l2.34-.08c3.44-.25 5.26-.53 7.75-2.99l1.41-2.49 1.47-2.51z" fill="#0C3C07"/><path d="m290.16 277.9 3.9.04 3.91.02 3.03.04c-5.32 3.06-11.45 3.32-17.44 4.2l-3.72.56-3.59.53-3.27.5c-2.91.2-5.16-.07-7.98-.79l1-2 3.25.12c5.66.01 11.23-.9 16.75-2.12 1-1 1-1 4.16-1.1" fill="#FE5609"/><path d="m272 316 2 1-8 8q4.63.12 9.25.19l2.64.07c5.09.12 5.09.12 9.72-1.77L289 322l-2 5a243 243 0 01-26 1c3.51-4.18 7.08-8.2 11-12" fill="#051B06"/><path d="M689 486c7.95 4.13 15.9 8.5 23 14v2a119 119 0 01-12.75-5.87l-2.07-1.03c-5.02-2.61-5.02-2.61-5.88-5.23L691 488h-2z" fill="#CED7B7"/><path d="m595 450 9.88 3.25 2.78.91A273 273 0 01626 461v2a70 70 0 01-16-5 593 593 0 00-8.35-3.04A216 216 0 01594 452z" fill="#81B10E"/><path d="m487 334 3 1c.64 6.04-1.68 10.59-4 16l-1 3-3-1 1.06-2.81c1.26-3.17 1.26-3.17-.06-6.19.78-2.48.78-2.48 1.94-5.19l1.15-2.73z" fill="#0F4B18"/><path d="M465 389c2 1 2 1 3 2 .24 5.53.24 5.53-1 8h-4l-2 8 3 1h-6l2.94-8.37.84-2.41.81-2.31.75-2.12C464 391 464 391 465 389" fill="#0A230F"/><path d="m166 359 2 1q2.06.32 4.13.54l2.44.26 2.56.26 2.57.28 6.3.66v1c-5.72.83-11.23 1.13-17 1.06l-2.35-.01L161 364z" fill="#0B3014"/><path d="m495 381 2 3-2 3 4 1h-4l-1 2-1-3-2.82-.18c-12.27-.84-12.27-.84-18.18-1.82v-2c7.37-.15 14.66.42 22 1z" fill="#D3E1D4"/><path d="m336 352 2 1-2 3q6.54-.1 13.08-.26l4.45-.09q3.2-.05 6.4-.14l3.88-.08c3.18-.15 3.18-.15 5.13-1.96L370 352l-2 5c-24.98 1.19-24.98 1.19-35 1 1.87-4.87 1.87-4.87 3-6" fill="#0A2A0C"/><path d="M627 462c8.17 2.58 16.07 5.77 24 9l-1 3-3-2q-3.49-.59-7-1v-2l-1.83-.37-2.42-.5-2.39-.5A28 28 0 01627 465z" fill="#85B512"/><path d="m101 410 1 2-2.37.4-3.07.54-3.06.52c-2.43.29-2.43.29-3.5 1.54q-2.54.1-5.06.06l-2.79-.02L80 415l1-3q3.87-.8 7.75-1.56l2.21-.46c3.66-.72 6.5-1.26 10.04.02" fill="#134318"/><path d="m713 500 1.43 1.24 1.88 1.64 1.87 1.61c1.95 1.67 1.95 1.67 4.82 3.51v2l-5.81-1.37-3.27-.78C711 507 711 507 708 505l-1-2 2.44-.94c2.45-.82 2.45-.82 3.56-2.06" fill="#A8C84B"/><path d="M478 358c1.11 1.59 1.11 1.59 2 4-.61 3.09-.61 3.09-1.75 6.5l-1.11 3.41A53 53 0 01474 379h-3c2.04-7.12 4.4-14.07 7-21" fill="#063A15"/><path d="M352 0h5l2 7.69.58 2.18c.97 3.8 1.67 7.18 1.42 11.13l-1-3h-2c-.94-4.31-1.48-8.62-2-13-2.87.57-3.86.86-6 3 .87-5.75.87-5.75 2-8" fill="#DBAC0A"/><path d="m238 352 2 1-4 4 22 1v1c-6.05.89-11.89 1.12-18 1.06l-2.64-.01L231 360l2.94-3.44 1.65-1.93q1.16-1.36 2.41-2.63" fill="#061B08"/><path d="M289 351c0 3 0 3-1.27 5.67-4.36 3.72-8.94 2.86-14.48 2.64l-3.27-.07q-3.99-.08-7.98-.24c1.65-2.03 2.47-2.93 5.11-3.26l2.42.14 2.65.1 5.51.31c2.52.09 4.82.13 7.31-.29 2.68-2.3 2.68-2.3 4-5" fill="#0A240D"/><path d="M195.33 398.77c7.92.12 15.78.58 23.67 1.23-2.68 2.68-4.14 2.31-7.88 2.41l-3.54.12-3.7.1-3.73.11q-4.57.14-9.15.26c0-3.18 1.3-3.93 4.33-4.23" fill="#27601F"/><path d="M570 442a236 236 0 0124 7l-1 2c-3.47-.46-6.67-.89-10-2v-2l-2.05-.15-2.7-.22-2.67-.22A18 18 0 01569 444z" fill="#83B20F"/><path d="M425 270h6v1h-5l-.69 2.44c-1.66 4.51-3.91 8.4-6.31 12.56h11v1c-4.67 1.21-9.21 1.09-14 1a91 91 0 015.62-11.81l.99-1.81z" fill="#1F6307"/><path d="m709.25 505.31 4.45 1.36 2.18.68q4.55 1.38 9.12 2.65v2c-6.91-1.19-13.46-3-20.12-5.2-3.02-.98-3.02-.98-6.88-.8v-2c4.16-1.39 7.22.04 11.25 1.31" fill="#214613"/><path d="M496 317c2 2 2 2 2 7l15 2v1h-20z" fill="#265F0E"/><path d="M508 273c1.15 3.46.8 4.47-.21 7.89l-.83 2.84-.9 2.96-.88 2.99L503 297l-2-2c.32-5.45 1.97-9.98 4.06-14.94l.86-2.07q1.03-2.5 2.08-4.99" fill="#11330B"/><path d="M409 326h18v3h-23v-1l5-1z" fill="#36721E"/><path d="M294 287c-12.46 14.26-12.46 14.26-18.45 16a29 29 0 01-7.55-1v-1l2.05-.09c9.01-.92 13.23-5.18 18.95-11.91l-1-2c3-1 3-1 6 0" fill="#051C06"/><path d="m518 60 3 3-3 9c-2.36-2.36-2.49-3.78-3-7l-5 2c2.39-3.24 4.2-5.51 8-7" fill="#E0B60C"/><path d="m250 304 5 1 1 3-13 13-2-2 12-12z" fill="#C5D3C4"/><path d="M489 439c8.48.32 16.05.79 24 4l-1 2a564 564 0 01-23-5z" fill="#98C515"/><path d="M263 297c0 3.52-.82 4.37-3 7l2-1q3-.41 6-.69l3.25-.32C274 302 274 302 276 304l-1.71.17-7.66.77-2.7.26-2.58.26-2.38.24c-2.04.21-2.04.21-3.97 1.3l-1-3 2.25-1.25A33 33 0 00263 297" fill="#E4EDE5"/><path d="m505 362 8 .44 2.25.12c4.96.28 9.83.78 14.75 1.44v1h-24l-2 5c-.92-2.58-1.19-3.59-.02-6.14z" fill="#022701"/><path d="m278 311 1 3-10 10 9 1v1h-13c5.75-6.75 5.75-6.75 8-9v-3l3 1z" fill="#12521E"/><path d="M329 105h1c-.41 7.39-1.59 14-4 21l4 1-8 1 1-3 1 1z" fill="#F9AF11"/><path d="m252 368 2 1-1.16 1.33-5.22 5.98-1.82 2.09-1.76 2.03-1.62 1.85c-1.6 1.87-1.6 1.87-3.42 4.72l-3-1 1.98-2.16A554 554 0 00252 368" fill="#E0EBE3"/><path d="M680 481q1.98.89 3.94 1.81l2.21 1.02C688 485 688 485 689 488h2l1 3c-4.03-1.22-7.65-2.41-11-5-.81-2.69-.81-2.69-1-5" fill="#E2E8CE"/><path d="m19 426 2 1c-1 3-1 3-2.58 3.98l-2.02.84-2.18.93-2.28.94-2.3.97L4 437c1.39-4.17 4.28-5.22 7.94-7.25l1.96-1.14A87 87 0 0119 426" fill="#BDC9BB"/><path d="M169 320h1v27h-2l-.06-10.12-.03-2.89c-.01-4.78.08-9.29 1.09-13.99" fill="#F81E0F"/><path d="M445 296c1 3 1 3 .29 4.99l-1.16 2.24-1.24 2.43-1.33 2.53-1.31 2.56L437 317l-2-2 3.87-7.81 1.11-2.24 1.07-2.16.99-1.98C443 299 443 299 445 296" fill="#F4F6ED"/><path d="m330 298-2.88 4.44-1.61 2.49C324 307 324 307 322 308l-.44-3.37c-.34-3.45-.34-3.45-1.56-5.63 3.41-.78 6.5-1.05 10-1" fill="#0E390F"/><path d="m465.36 264.51 3.83.18 3.86.13 2.95.18v1l-3.12.37c-3.58.58-6.6 1.1-9.88 2.63-1.43 2.51-1.43 2.51-2 5-1.18-1.69-1.18-1.69-2-4 1.49-3.9 2.14-4.88 6.36-5.49" fill="#72A214"/><path d="M514 329c-4.77 3.92-8.04 4.19-14.13 3.69l-3.19-.24C494 332 494 332 492 330c7.36-.71 14.61-1.15 22-1" fill="#417922"/><path d="m343 280-4 6-1-2 1-2-17 3c2-3 2-3 5.08-3.73l3.73-.46 3.71-.48c2.86-.27 5.61-.4 8.48-.33" fill="#173D15"/><path d="M465 434c5.79-.21 10.55-.18 16 2a248 248 0 007 2v1a107 107 0 01-23-4z" fill="#93C216"/><path d="M546 412h1l.06 4.31.04 2.43C547 421 547 421 546 424l5 2v1l-8-1c.51-4.97 1.23-9.29 3-14" fill="#0C280F"/><path d="M493 389c1.03 3.14.99 4.83-.21 7.89l-.83 2.15-.9 2.21-.88 2.26L488 409l-2-1a114 114 0 017-19" fill="#E8F0E7"/><path d="M464 400a16.6 16.6 0 013 7l5 1v2l-10-1-1-5h2z" fill="#123618"/><path d="M208 325v3l-2 2h9l1 2-17 1c5.62-5.62 5.62-5.62 9-8" fill="#091E0C"/><path d="M681 487c4.87.6 8.59 2.72 12.81 5.06l2.1 1.15q2.55 1.38 5.09 2.79l-2 1-7-3-2 1v-3l-1.69-.25c-3.01-.98-4.93-2.7-7.31-4.75" fill="#75A70C"/><path d="m537.19 391.88 3.8.13q-.4 2.68-.86 5.37l-.5 3.01c-.63 2.62-.63 2.62-2.63 4.62l1-11h-8c3.09-2.06 3.7-2.25 7.19-2.13" fill="#0E3511"/><path d="m502 299 2 3c1.92.6 1.92.6 4.13.73l2.44.24 2.56.22 2.57.25q3.15.3 6.3.56v1h-21z" fill="#EEA706"/><path d="M268 283c-3.8 2.38-7.89 2.66-12.25 3.13l-2.26.26-5.49.61-1-2 2.69-.44q2.8-.45 5.56-1.12c4.24-.68 8.47-.51 12.75-.44" fill="#FE4909"/><path d="m538 145-2 5-6-2-1 2-4-2q2.12-1.05 4.25-2.06l2.39-1.16c2.62-.87 3.81-.71 6.36.22" fill="#F1C910"/><path d="M655 469c4.75.88 4.75.88 7 2v4c-6.75-.87-6.75-.87-9-2z" fill="#EFF3E4"/><path d="M515 333c1.5 3.9.45 6.62-.81 10.5l-1.08 3.41A51 51 0 01510 354h-2a139 139 0 017-21" fill="#14480D"/><path d="M492 283c-.38 2.44-.38 2.44-1 5l-2 1-2 3 1-6-2.88.63-3.12.37-2-2c3.9-2.6 7.47-2.15 12-2" fill="#82AE18"/><path d="M501 262c-.81 2.44-.81 2.44-2 5l-3 1v-3h-7l1-3c7.43-1.29 7.43-1.29 11 0" fill="#ACC41F"/><path d="M315 358h15c0 5.63 0 5.63-2.5 8.81l-1.41 1.83L325 370c-1-3-1-3 0-5.04l4-5.96h-14z" fill="#F1F6F1"/><path d="M500 293c1.55 1.64 1.55 1.64 3 4-.14 2.8-.14 2.8-.81 5.75l-.65 2.98L501 308h-3l.44-5.81.24-3.27C499 296 499 296 500 293" fill="#144A1B"/><path d="M469 181a172 172 0 0113 12l-1 2a526 526 0 01-5.44-4.19l-3.06-2.35c-2.65-2.61-3.25-3.82-3.5-7.46" fill="#FEB909"/><path d="M378 101h1q1.04 4.4 2.06 8.81l.61 2.53.55 2.43.53 2.24C383 119 383 119 382 122c-2.93-5.6-4.14-9.44-4.06-15.75l.02-2.98z" fill="#FACC19"/><path d="M607 471c4.49-.21 7.79.47 12 2h2v2l4 2c-6.42-.57-12.02-2.67-18-5z" fill="#B2D914"/><path d="M282 332c-2.32 3.72-4.29 6.61-8 9l2-6h-5c2.78-4.17 6.47-3.22 11-3" fill="#0A320F"/><path d="m339.94 296.9 3.62.04 3.63.02 2.81.04v1l-3.25.44c-2.67.4-5.17.83-7.75 1.56v2l-5 1c2.3-5.98 2.3-5.98 5.94-6.1" fill="#0D3B0C"/><path d="M343 138v1l-2.55.37-3.33.51-3.3.49c-2.94.39-2.94.39-4.82 2.63v-2l-6 1v-2c6.82-1.79 12.97-2.24 20-2" fill="#FE540A"/><path d="m508 67 2 1-11 12-4-1z" fill="#E8BA11"/><path d="m126 390 2 1c-3.13 4.1-6.14 7.08-11 9-2.13-.45-2.13-.45-4-1l1.83-1.21 2.42-1.6 2.39-1.58q3.24-2.22 6.36-4.61" fill="#071A0A"/><path d="m665 478 1.72.77q7.12 3.17 14.28 6.23l-2 2a217 217 0 01-15-7z" fill="#7CAE11"/><path d="M596 466q2.38.67 4.75 1.38l2.67.77c2.34.77 4.41 1.69 6.58 2.85-5.13 1.82-9.18-.14-14-2z" fill="#A1CA13"/><path d="M551 452c2.06.44 2.06.44 4 1v2l2.08.15 2.73.23 2.71.21C565 456 565 456 568 458c-5.73.23-10.61.09-16-2l-2-3z" fill="#9EC816"/><path d="M399 386h1c.35 4.88-.58 7.77-3 12l3 1h-4v-2l-2-1z" fill="#CFDED0"/><path d="m188 371 1 3-9 9-2-2z" fill="#CDDDD1"/><path d="M582 463c10.56.59 10.56.59 15 4-3.5 1.21-5.69.78-9.19-.31l-2.67-.8C583 465 583 465 582 463" fill="#B1D715"/><path d="M564 423h2l1 8h2v2l-7-2z" fill="#1D321E"/><path d="M543 314h17l-2 7h-1v-5l-14-1z" fill="#41820C"/><path d="m308 301-6 5v-2l-9-1v-1q2.9-.55 5.81-1.06l3.27-.6C305 300 305 300 308 301" fill="#0B280D"/><path d="M113 251c-3 2-3 2-5 3v4l-5-2v-4c3.38-1.04 6.48-1.08 10-1" fill="#DE4E05"/><path d="m299 311 2 1-10 13-2-2 4.44-5.44 2.49-3.06C298 312 298 312 299 311" fill="#E8F1E8"/><path d="m311 296 1 2 2.08-.29 2.73-.33 2.71-.36C322 297 322 297 325 299l-16 1z" fill="#DBE5D9"/><path d="m401.81 272.94 2.96.03 2.23.03c-4.25 2.12-6.33 3.12-11.13 2.57l-2.76-.31q-1.04-.14-2.1-.26v-1a44 44 0 0110.8-1.06" fill="#29690D"/><path d="m711 504 2.31.5c2.73.59 2.73.59 5.69.5a20 20 0 014 3v2l-8-2v-2z" fill="#83AD24"/><path d="m443 414 9 1 1 3c-7.43.14-7.43.14-11-1z" fill="#609615"/><path d="M178 389v3l2 1-12 1c2.1-4.21 5.57-5 10-5" fill="#04270D"/><path d="m500 368 2 3c-.9 2.92-.9 2.92-2.38 6.19l-1.46 3.29L497 383c-1.43-3.79-.51-6.07.94-9.75l1.15-2.98z" fill="#EAEFE8"/><path d="m290.16 277.9 3.9.04 3.91.02 3.03.04a21 21 0 01-8.63 2.75l-2.35.3C288 281 288 281 286 279c1-1 1-1 4.16-1.1" fill="#FE710B"/><path d="M266 296c0 3 0 3-2 6l1.81-.62C268 301 268 301 271 303l-11 1a24 24 0 016-8" fill="#26412A"/><path d="M621 171h6l1 3c-1.31 2.19-1.31 2.19-3 4h-2l.13-2.37c.16-2.79.16-2.79-2.13-4.63" fill="#DEB008"/><path d="m409 91 1 2c-4 6.57-4 6.57-8 8 1.39-4.43 3.61-6.87 7-10" fill="#F9D517"/><path d="m463 359-2 6-2-1 1-3h-12v-1l4.69-.5 2.63-.28c2.58-.21 5.1-.26 7.68-.22" fill="#0A4704"/><path d="M290 331c6.89-.67 6.89-.67 10.5 1.5l1.5 1.5c-3.27 1.03-5.86.96-9.25.56l-2.7-.31L288 334z" fill="#17541F"/><path d="M674 479c2.94.75 2.94.75 6 2 .88 2.13.88 2.13 1 4q-3.53-.9-7-2l-1-2z" fill="#EFF4E5"/><path d="M184 364h12l-5 6-2-2 2-2-7-1z" fill="#29462F"/><path d="M551 316h6l1 7-4 3 .29-6.05L554 318z" fill="#6C9E1A"/><path d="m417 285 13 1v1c-4.67 1.21-9.21 1.09-14 1z" fill="#316D16"/><path d="m615 184 1 2-8 7-2-1 1-3h3v-3z" fill="#EBB309"/><path d="M79 171h6l-3 1 3 7c-2.47-1.15-4.05-2.05-6-4z" fill="#CD4502"/><path d="m507 96 2 3h-2l-3 10c-2-4-2-4-1.13-6.75L504 100h2z" fill="#EEC114"/><path d="m101 410 1 2-10 1v-3c3.33-.83 5.75-1.28 9 0" fill="#1C4A1F"/><path d="m108.19 407.94 2.73.03 2.08.03v1a27 27 0 01-12 2l-1-2c3.02-1 5.04-1.1 8.19-1.06" fill="#103111"/><path d="m166 359 2 1v2l3 2h-10z" fill="#021705"/><path d="m300 348 2 1a37 37 0 01-4 8h-2c1.75-6.75 1.75-6.75 4-9" fill="#0B3B11"/><path d="m248 341 1 2c-1.73 3.65-3.19 5.56-7 7 1.31-3.94 2.92-6.23 6-9" fill="#0E3516"/><path d="m491 320 3 1c.37 4.55.37 4.55-1.5 6.81L491 329c-.88-6.15-.88-6.15-1-8z" fill="#09390E"/><path d="M257 305c2.82-.29 2.82-.29 6.13-.19l3.32.08 2.55.11v1l-5.31 1-2.99.56c-2.7.44-2.7.44-5.7.44z" fill="#0A240C"/><path d="m421 289 11 1-1 2h-10z" fill="#538B1E"/><path d="m386 264 1 2 3 1q-2.68.33-5.38.63l-3.02.35-2.6.02-2-2a154 154 0 019-2" fill="#FEAF0F"/><path d="M442 163c4.51.53 7.35 2.37 11 5l-2 2-4.5-2.94-2.53-1.65L442 164z" fill="#FEA90A"/><path d="m488 408 1 4 8 1v1c-7.43.14-7.43.14-11-1z" fill="#0B210C"/><path d="m385 327-2 5-1-2h-7c2.7-3.82 5.62-3.25 10-3" fill="#2A5D26"/><path d="m504.48 248.93 2.71.39 2.73.36q1.02.14 2.08.32v1c-4.41 1.1-8.48 1.08-13 1 1.79-2.31 2.49-2.98 5.48-3.07" fill="#FDCC0B"/><path d="M203 221h1c.37 4.56.37 4.56-1.38 6.63L201 229l-2 3c-1-3-1-3-.04-5.04l1.41-2.15q.7-1.06 1.4-2.17z" fill="#FB3411"/><path d="m235 184 2 1a43 43 0 01-9 9l-2-1z" fill="#FA1C00"/><path d="M531 155c0 4.25-1.82 6.39-4 10h-1c-.31-2.19-.31-2.19 0-5 2.5-2.81 2.5-2.81 5-5" fill="#F4CD15"/><path d="M363 31h1q.55 2.12 1.06 4.25l.6 2.39c.35 2.46.11 4.02-.66 6.36v-2h-2c-1.05-3.98-.84-6.98 0-11" fill="#EEBC0E"/><path d="m594 449-1 2c-6.63-.75-6.63-.75-10-3 4.25-1.42 6.72-.19 11 1" fill="#8BB816"/><path d="m314 383 3 1-5 8-2-3z" fill="#DBE5DB"/><path d="m252 368 2 1-8 9c0-3.59.66-4.11 3-6.69l1.69-1.88z" fill="#EFF4F0"/><path d="M505 362h7c-3 2-3 2-6 3-1.22 2.5-1.22 2.5-2 5-.93-2.61-1.15-3.64-.06-6.25z" fill="#0C380A"/><path d="M513 332h2l-2 9-3-1z" fill="#E0E7D7"/><path d="M237 334h11l-5 5-1-3-5-1z" fill="#203D23"/><path d="m172 314 1 8-3 2-1-9c2-1 2-1 3-1" fill="#FB4113"/><path d="M517 311h4l-2 4-10-1v-1h8z" fill="#51861F"/><path d="m254 306-3 4-8-2c3.63-2.33 6.77-2.16 11-2" fill="#0D210E"/><path d="m549 287 3 3c-1.25 3.65-1.67 4.78-5 7v-4h2l-.56-2.44L548 288z" fill="#F4CD44"/><path d="m378 277-1 3h-15v-1l6.87-1 3.87-.56C376 277 376 277 378 277" fill="#377519"/><path d="m172 144 4 2h-2l-1 6c-2.14-2.14-2.63-3.07-3-6z" fill="#E77604"/><path d="m560 439 8 2v3l-9-3z" fill="#81B011"/><path d="M109 407h11l-4 2-1 1q-3 .06-6 0z" fill="#1A421C"/><path d="m149 402 10 1-1 2h-8z" fill="#1F5721"/><path d="M467 397c.63 1.81.63 1.81 1 4l-2 3-2-2-2 2 1-5h4z" fill="#083C15"/><path d="M416 353c2 3.75 2 3.75 2 6l-5 1v-3h2z" fill="#DAE6D7"/><path d="m508 354 13 2v1h-14z" fill="#032501"/><path d="M541 313h7l1 3c-3.33 1.11-5.62.84-9 0z" fill="#699A21"/><path d="M173 290h3l-1 8h-3z" fill="#FB3C1B"/><path d="m343 280-4 6-1-2 1-2h-5c3.13-1.86 5.37-2.2 9-2" fill="#0D310A"/><path d="m456 272 2 3-4 7c-.69-1.62-.69-1.62-1-4 1.44-3.25 1.44-3.25 3-6" fill="#E7EDD3"/><path d="m398.19 262.94 3.8.06v2q-2.16.33-4.36.63-1.22.16-2.46.35L393 266l-2-2a19 19 0 017.19-1.06" fill="#FEB307"/><path d="m242 160 2 1-3.88 3.5-2.17 1.97C236 168 236 168 234 168v-3l5.37-3.03c1.61-.87 1.61-.87 2.63-1.97" fill="#FE6107"/><path d="m358 11 2 1c.41 2.07.41 2.07.63 4.56l.22 2.51L361 21l-1-3h-2c-1.13-4.75-1.13-4.75 0-7" fill="#E6B70D"/><path d="M577 460q2.22.42 4.44.88l2.49.49 2.07.63 1 2c-7.43.29-7.43.29-11-2z" fill="#9EC814"/><path d="m527 430 1 3c-6.15-.59-6.15-.59-8-1l-1-2c2.86-1.43 4.93-.6 8 0" fill="#7FAF13"/><path d="m494 423 7 1v3l-8-1z" fill="#71A312"/><path d="M299 295h4v3l2 1h-7z" fill="#08360B"/><path d="m321 283-4 4v-2h-7v-1a42 42 0 0111-1" fill="#0B2B0A"/><path d="M421 281c2 1 2 1 3 3l2 2h-7z" fill="#4F8816"/><path d="m381 275-2 5-1-3-1.75.63c-2.79.46-3.83-.3-6.25-1.63l4.37-.5 2.47-.28C379 275 379 275 381 275" fill="#215518"/><path d="m461 266 4 1h-2l-2 7c-1.13-1.75-1.13-1.75-2-4 .87-2.25.87-2.25 2-4" fill="#5D950F"/><path d="M368 54c1.79 3.12 2.34 5.68 2.63 9.25l.22 2.7L371 68c-1.76-3.09-2-4.23-2-8h-2z" fill="#F0B912"/><path d="M342 41h1c1.33 5.92.66 8.78-2 14h-1c.96-9.41.96-9.41 2-14" fill="#F1B311"/><path d="M345 27h1l1 7h-2l-1 6c-1.07-3.27-.89-5.43-.06-8.75l.59-2.42z" fill="#E8AE0E"/><path d="M558 363c2 3 2 3 1.76 5.26l-.63 2.43-.62 2.45L558 375c-1.36-2.24-2.06-3.49-1.76-6.14z" fill="#133414"/><path d="m270 347 2 1-6 7-2-2z" fill="#E6EDE5"/><path d="M218 336h6a107 107 0 01-4 5h-2z" fill="#09240D"/><path d="M298 331h7c-1.75 3.88-1.75 3.88-4 5v-2c-1.46-1.63-1.46-1.63-3-3" fill="#09280A"/><path d="m671 476 7 3-6 3z" fill="#CDD7B3"/><path d="m634 465 9 3v1c-3.63.2-5.87-.14-9-2z" fill="#7DAE0C"/><path d="M186 366h6l-2 3-1 2-3-1z" fill="#0F461C"/><path d="M322 359h7l-2 5-1-3c-2.02-.73-2.02-.73-4-1z" fill="#344D33"/><path d="m427 332 2 2-3 6-2-1c1.87-5.87 1.87-5.87 3-7" fill="#E3EADB"/><path d="m341 292 7 2v1h-9z" fill="#0C380A"/><path d="M418 271c-1.06 1.56-1.06 1.56-3 3-3.69-.31-3.69-.31-7-1 3.64-2.43 5.71-2.16 10-2" fill="#366D1B"/><path d="M419 74c1 3 1 3 0 6-2.06.69-2.06.69-4 1 1.07-2.92 1.78-4.78 4-7" fill="#F0C715"/><path d="M293 429h6v1h-6z" fill="#164013"/><path d="M98 428h5l-1 2z" fill="#184219"/><path d="M357 437h5v1h-5z" fill="#184213"/><path d="M322 119h3v2l-3-1z" fill="#FFC61E"/><path d="M157 291h2l-1 3z" fill="#E89F6F"/><path d="m384 121 3 1-3 1z" fill="#FFDD2F"/><path d="M680 479h2l-1 2z" fill="#77944F"/><path d="m11 428 2 1-2 1z" fill="#405C3A"/><path d="m434 127 2 1-2 1z" fill="#FEDA2C"/></svg>